<svg width="15" height="15" viewBox="0 0 15 15" fill="none" xmlns="http://www.w3.org/2000/svg">
<path d="M8.93079 6.16667H12.149C12.3793 6.16667 12.6057 6.22476 12.8068 6.33542C13.0079 6.44607 13.1771 6.60562 13.2981 6.79891C13.4192 6.9922 13.4882 7.21283 13.4986 7.43984C13.509 7.66686 13.4604 7.89272 13.3575 8.096L10.9932 12.7627C10.8809 12.9843 10.7084 13.1707 10.4948 13.3009C10.2812 13.4312 10.035 13.5001 9.78398 13.5H7.07039C6.96028 13.5 6.85017 13.4867 6.74276 13.46L4.2021 12.8333M8.93079 6.16667V2.83333C8.93079 2.47971 8.78844 2.14057 8.53507 1.89052C8.2817 1.64048 7.93806 1.5 7.57973 1.5H7.51556C7.1778 1.5 6.90421 1.77 6.90421 2.10333C6.90421 2.57933 6.76167 3.04467 6.49349 3.44067L4.2021 6.83333V12.8333M8.93079 6.16667H7.57973M4.2021 12.8333H2.85105C2.49273 12.8333 2.14909 12.6929 1.89571 12.4428C1.64234 12.1928 1.5 11.8536 1.5 11.5V7.5C1.5 7.14638 1.64234 6.80724 1.89571 6.55719C2.14909 6.30714 2.49273 6.16667 2.85105 6.16667H4.53987" stroke="#2A804E" stroke-width="1.5" stroke-linecap="round" stroke-linejoin="round"/>
</svg>
