<svg width="17" height="16" viewBox="0 0 17 16" fill="none" xmlns="http://www.w3.org/2000/svg">
<path d="M10.1667 6.33333H14.1367C14.4207 6.33334 14.7001 6.40595 14.9482 6.54427C15.1963 6.68259 15.4049 6.88202 15.5543 7.12364C15.7036 7.36525 15.7888 7.64104 15.8016 7.9248C15.8144 8.20857 15.7545 8.4909 15.6275 8.745L12.7108 14.5783C12.5724 14.8554 12.3595 15.0884 12.096 15.2512C11.8325 15.414 11.5289 15.5001 11.2192 15.5H7.87167C7.73583 15.5 7.6 15.4833 7.4675 15.45L4.33333 14.6667H2.66667C2.22464 14.6667 1.80072 14.4911 1.48816 14.1785C1.17559 13.8659 1 13.442 1 13V8C1 7.55797 1.17559 7.13405 1.48816 6.82149C1.80072 6.50893 2.22464 6.33333 2.66667 6.33333H4.88878L7.16 2.92583C7.49083 2.43083 7.66667 1.84917 7.66667 1.25417C7.66667 0.8375 8.00417 0.5 8.42083 0.5H8.5C8.94203 0.5 9.36595 0.675595 9.67851 0.988155C9.99107 1.30072 10.1667 1.72464 10.1667 2.16667V6.33333Z" fill="#2A804E"/>
<path d="M4.33333 14.6667L7.4675 15.45C7.6 15.4833 7.73583 15.5 7.87167 15.5H11.2192C11.5289 15.5001 11.8325 15.414 12.096 15.2512C12.3595 15.0884 12.5724 14.8554 12.7108 14.5783L15.6275 8.745C15.7545 8.4909 15.8144 8.20857 15.8016 7.9248C15.7888 7.64104 15.7036 7.36525 15.5543 7.12364C15.4049 6.88202 15.1963 6.68259 14.9482 6.54427C14.7001 6.40595 14.4207 6.33334 14.1367 6.33333H10.1667V2.16667C10.1667 1.72464 9.99107 1.30072 9.67851 0.988155C9.36595 0.675595 8.94203 0.5 8.5 0.5H8.42083C8.00417 0.5 7.66667 0.8375 7.66667 1.25417C7.66667 1.84917 7.49083 2.43083 7.16 2.92583L4.33333 7.16667M4.33333 14.6667V7.16667M4.33333 14.6667H2.66667C2.22464 14.6667 1.80072 14.4911 1.48816 14.1785C1.17559 13.866 1 13.442 1 13V8C1 7.55797 1.17559 7.13405 1.48816 6.82149C1.80072 6.50893 2.22464 6.33333 2.66667 6.33333H4.88878L4.33333 7.16667" stroke="white" stroke-linecap="round" stroke-linejoin="round"/>
</svg>
